<mxfile host="Electron" agent="Mozilla/5.0 (Windows NT 10.0; Win64; x64) AppleWebKit/537.36 (KHTML, like Gecko) draw.io/27.0.5 Chrome/134.0.6998.205 Electron/35.3.0 Safari/537.36" version="27.0.5">
  <diagram name="Страница — 1" id="W07FXUOTBL1SyVtKBFKU">
    <mxGraphModel dx="2066" dy="1209" grid="1" gridSize="10" guides="1" tooltips="1" connect="1" arrows="1" fold="1" page="1" pageScale="1" pageWidth="1600" pageHeight="900" math="0" shadow="0">
      <root>
        <mxCell id="0" />
        <mxCell id="1" parent="0" />
        <mxCell id="FAn2xvTsdbXNK6kRqN2H-14" value="" style="rounded=0;whiteSpace=wrap;html=1;fillColor=#d5e8d4;dashed=1;dashPattern=8 8;strokeWidth=3;strokeColor=#82b366;opacity=40;" vertex="1" parent="1">
          <mxGeometry x="900" y="190" width="380" height="510" as="geometry" />
        </mxCell>
        <mxCell id="FAn2xvTsdbXNK6kRqN2H-3" value="" style="edgeStyle=orthogonalEdgeStyle;rounded=0;orthogonalLoop=1;jettySize=auto;html=1;" edge="1" parent="1" source="FAn2xvTsdbXNK6kRqN2H-1" target="FAn2xvTsdbXNK6kRqN2H-2">
          <mxGeometry relative="1" as="geometry" />
        </mxCell>
        <mxCell id="FAn2xvTsdbXNK6kRqN2H-10" value="&lt;font style=&quot;font-size: 25px;&quot;&gt;Законы движения Ньютона&lt;/font&gt;" style="edgeLabel;html=1;align=center;verticalAlign=middle;resizable=0;points=[];" vertex="1" connectable="0" parent="FAn2xvTsdbXNK6kRqN2H-3">
          <mxGeometry x="-0.1133" y="-3" relative="1" as="geometry">
            <mxPoint x="13" y="-23" as="offset" />
          </mxGeometry>
        </mxCell>
        <mxCell id="FAn2xvTsdbXNK6kRqN2H-1" value="Физическая система" style="rounded=1;whiteSpace=wrap;html=1;fontSize=36;fontStyle=1" vertex="1" parent="1">
          <mxGeometry x="270" y="245" width="250" height="130" as="geometry" />
        </mxCell>
        <mxCell id="FAn2xvTsdbXNK6kRqN2H-5" value="" style="edgeStyle=orthogonalEdgeStyle;rounded=0;orthogonalLoop=1;jettySize=auto;html=1;" edge="1" parent="1" source="FAn2xvTsdbXNK6kRqN2H-2" target="FAn2xvTsdbXNK6kRqN2H-4">
          <mxGeometry relative="1" as="geometry" />
        </mxCell>
        <mxCell id="FAn2xvTsdbXNK6kRqN2H-11" value="&lt;font style=&quot;font-size: 25px;&quot;&gt;Линериазация,&amp;nbsp;&lt;/font&gt;&lt;div&gt;&lt;font style=&quot;font-size: 25px;&quot;&gt;упрощение и т. д.&lt;/font&gt;&lt;/div&gt;" style="edgeLabel;html=1;align=center;verticalAlign=middle;resizable=0;points=[];labelBackgroundColor=none;" vertex="1" connectable="0" parent="FAn2xvTsdbXNK6kRqN2H-5">
          <mxGeometry x="-0.1692" y="-1" relative="1" as="geometry">
            <mxPoint as="offset" />
          </mxGeometry>
        </mxCell>
        <mxCell id="FAn2xvTsdbXNK6kRqN2H-2" value="Математическая модель" style="rounded=1;whiteSpace=wrap;html=1;fontSize=36;fontStyle=1" vertex="1" parent="1">
          <mxGeometry x="920" y="235" width="340" height="150" as="geometry" />
        </mxCell>
        <mxCell id="FAn2xvTsdbXNK6kRqN2H-7" value="" style="edgeStyle=orthogonalEdgeStyle;rounded=0;orthogonalLoop=1;jettySize=auto;html=1;" edge="1" parent="1" source="FAn2xvTsdbXNK6kRqN2H-4" target="FAn2xvTsdbXNK6kRqN2H-6">
          <mxGeometry relative="1" as="geometry" />
        </mxCell>
        <mxCell id="FAn2xvTsdbXNK6kRqN2H-4" value="&lt;b&gt;&lt;font style=&quot;font-size: 36px;&quot;&gt;Цифровая модель динамики&lt;/font&gt;&lt;/b&gt;" style="rounded=1;whiteSpace=wrap;html=1;" vertex="1" parent="1">
          <mxGeometry x="915" y="515" width="350" height="150" as="geometry" />
        </mxCell>
        <mxCell id="FAn2xvTsdbXNK6kRqN2H-8" style="edgeStyle=orthogonalEdgeStyle;rounded=0;orthogonalLoop=1;jettySize=auto;html=1;entryX=0;entryY=0.5;entryDx=0;entryDy=0;" edge="1" parent="1" source="FAn2xvTsdbXNK6kRqN2H-6" target="FAn2xvTsdbXNK6kRqN2H-1">
          <mxGeometry relative="1" as="geometry">
            <Array as="points">
              <mxPoint x="190" y="590" />
              <mxPoint x="190" y="310" />
            </Array>
          </mxGeometry>
        </mxCell>
        <mxCell id="FAn2xvTsdbXNK6kRqN2H-12" value="Алгоритмы управления&lt;div&gt;реализуются на бортовом&amp;nbsp;&lt;/div&gt;&lt;div&gt;вычислителе,&amp;nbsp;&lt;span style=&quot;background-color: light-dark(#ffffff, var(--ge-dark-color, #121212)); color: light-dark(rgb(0, 0, 0), rgb(255, 255, 255));&quot;&gt;управляя&amp;nbsp;&lt;/span&gt;&lt;/div&gt;&lt;div&gt;&lt;span style=&quot;background-color: light-dark(#ffffff, var(--ge-dark-color, #121212)); color: light-dark(rgb(0, 0, 0), rgb(255, 255, 255));&quot;&gt;физической системой&lt;/span&gt;&lt;/div&gt;" style="edgeLabel;html=1;align=center;verticalAlign=middle;resizable=0;points=[];fontSize=25;" vertex="1" connectable="0" parent="FAn2xvTsdbXNK6kRqN2H-8">
          <mxGeometry x="0.0455" y="-4" relative="1" as="geometry">
            <mxPoint as="offset" />
          </mxGeometry>
        </mxCell>
        <mxCell id="FAn2xvTsdbXNK6kRqN2H-9" style="edgeStyle=orthogonalEdgeStyle;rounded=0;orthogonalLoop=1;jettySize=auto;html=1;entryX=0.5;entryY=1;entryDx=0;entryDy=0;" edge="1" parent="1" source="FAn2xvTsdbXNK6kRqN2H-6" target="FAn2xvTsdbXNK6kRqN2H-4">
          <mxGeometry relative="1" as="geometry">
            <Array as="points">
              <mxPoint x="390" y="730" />
              <mxPoint x="1090" y="730" />
            </Array>
          </mxGeometry>
        </mxCell>
        <mxCell id="FAn2xvTsdbXNK6kRqN2H-13" value="Отработка алгоритмов на цифровой модели" style="edgeLabel;html=1;align=center;verticalAlign=middle;resizable=0;points=[];fontSize=25;" vertex="1" connectable="0" parent="FAn2xvTsdbXNK6kRqN2H-9">
          <mxGeometry x="-0.1172" relative="1" as="geometry">
            <mxPoint x="17" as="offset" />
          </mxGeometry>
        </mxCell>
        <mxCell id="FAn2xvTsdbXNK6kRqN2H-6" value="Система управления" style="rounded=1;whiteSpace=wrap;html=1;fontSize=36;fontStyle=1" vertex="1" parent="1">
          <mxGeometry x="270" y="530" width="250" height="120" as="geometry" />
        </mxCell>
        <mxCell id="FAn2xvTsdbXNK6kRqN2H-15" value="Предмет курса" style="text;html=1;align=center;verticalAlign=middle;whiteSpace=wrap;rounded=0;fontSize=25;fontStyle=0" vertex="1" parent="1">
          <mxGeometry x="990" y="190" width="190" height="30" as="geometry" />
        </mxCell>
      </root>
    </mxGraphModel>
  </diagram>
</mxfile>
